<svg width="80" height="80" viewBox="0 0 80 80" xmlns="http://www.w3.org/2000/svg"><title>back-icon</title><path d="M40 0C17.944 0 0 17.943 0 40c0 22.056 17.944 40 40 40s40-17.944 40-40S62.056 0 40 0zm2.505 21.085l-16.66 17.354a2.344 2.344 0 0 0-.5.825c-.28.798-.09 1.695.487 2.298l16.66 17.353a2.044 2.044 0 0 0 2.969 0 2.25 2.25 0 0 0 0-3.09l-15.185-15.82 15.195-15.83a2.25 2.25 0 0 0 .002-3.09 2.04 2.04 0 0 0-2.968 0zM40 75C20.702 75 5 59.299 5 40S20.702 5 40 5c19.299 0 35 15.701 35 35S59.299 75 40 75z" fill="#1D1D1B" fill-rule="evenodd"/></svg>