<svg width="64" height="64" viewBox="0 0 64 64" xmlns="http://www.w3.org/2000/svg"><title>maintenance</title><g fill-rule="evenodd"><path d="M0 0v51.613h17.29c-1.763 1.548-2.838 3.797-2.838 6.193V64h6.193v-6.194c0-1.138.926-2.064 2.065-2.064 1.138 0 2.064.926 2.064 2.064V64h6.194v-6.194c0-2.396-1.076-4.645-2.838-6.193h9.031v7.226A5.167 5.167 0 0 0 42.323 64a5.167 5.167 0 0 0 5.16-5.161v-7.226H64V0H0zm28.903 57.806v4.13H26.84v-4.13a4.133 4.133 0 0 0-4.13-4.129 4.133 4.133 0 0 0-4.128 4.13v4.128h-2.065v-4.129a6.222 6.222 0 0 1 3.54-5.588l.59-.281V28.579l-.59-.28a6.224 6.224 0 0 1-3.54-5.59v-4.128h2.065v4.129a4.133 4.133 0 0 0 4.129 4.129 4.133 4.133 0 0 0 4.129-4.13v-4.128h2.064v4.129a6.222 6.222 0 0 1-3.54 5.588l-.589.281v23.36l.589.279a6.222 6.222 0 0 1 3.54 5.588zm8.258-8.258H26.84v-2.064h10.32v2.064zm8.258 9.29a3.1 3.1 0 0 1-3.096 3.097 3.1 3.1 0 0 1-3.097-3.096V43.355h2.064v3.097h2.065v-3.097h2.064v15.484zM40.346 22.37l.759-3.79h2.436l.757 3.79-.943.945V41.29H41.29V23.315l-.944-.945zm5.073 18.92V24.17l1.12-1.12-1.305-6.534h-5.822l-1.307 6.533 1.12 1.12V41.29h-4.128v2.065h2.064v2.064H26.84V29.853c2.528-1.466 4.129-4.201 4.129-7.143v-6.194h-6.194v6.194a2.067 2.067 0 0 1-2.064 2.064 2.067 2.067 0 0 1-2.065-2.064v-6.194h-6.193v6.194c0 2.942 1.6 5.677 4.129 7.143v15.566H6.194V14.452h51.612v30.967H47.484v-2.064h2.064V41.29H45.42zm16.516 8.258H47.484v-2.064H59.87V12.387H4.129v35.097h14.452v2.064H2.065V10.323h59.87v39.225zm0-41.29H2.065V2.065h59.87v6.193z"/><path d="M4.129 4.129h2.065v2.065H4.129zm4.129 0h2.065v2.065H8.258zm4.129 0h2.065v2.065h-2.065zM41.29 48.516h2.065v2.065H41.29zM47.484 32h2.065v2.065h-2.065zm4.129 0h2.065v2.065h-2.065zm-41.29 0h2.065v2.065h-2.065zm4.129 0h2.065v2.065h-2.065z"/></g></svg>