<svg width="200" height="200" viewBox="0 0 118 118" xmlns="http://www.w3.org/2000/svg"><title>flaticon1476561364-svg</title><g fill-rule="evenodd"><path d="M59 118C26.468 118 0 91.532 0 59S26.468 0 59 0s59 26.468 59 59-26.468 59-59 59zM59 3.576C28.438 3.576 3.576 28.438 3.576 59S28.438 114.424 59 114.424 114.424 89.562 114.424 59 89.562 3.576 59 3.576z"/><path d="M59 118c-12.283 0-24.086-3.783-34.145-10.942a1.785 1.785 0 1 1 .415-3.132c14.825-5.489 17.217-9.944 17.217-18.483 0-2.257-.508-2.997-1.423-4.341-1.212-1.767-2.871-4.187-4.037-10.51-.172-.908-.318-.98-1.13-1.372-2.167-1.045-4.159-2.546-4.68-9.398 0-3.318 1.144-5.152 2.091-6.107a184.07 184.07 0 0 1-.865-5.432c-1.62-9.93-1.691-22.09 12.275-27.744 12.172-4.934 21.888-2.238 24.938.976 2.16.068 7.73.633 11.607 5.142 5.964 6.937 4.065 22.753 3.415 27.04.95.933 2.106 2.743 2.106 5.99-.522 6.987-2.514 8.492-4.685 9.533-.815.393-.961.46-1.13 1.373-1.165 6.322-2.82 8.742-4.033 10.509-.919 1.34-1.423 2.084-1.423 4.34 0 8.54 2.392 12.995 17.217 18.484a1.78 1.78 0 0 1 1.152 1.44c.085.659-.2 1.31-.737 1.692C83.086 114.217 71.283 118 59 118zm-29.26-11.975a54.93 54.93 0 0 0 29.26 8.4 54.93 54.93 0 0 0 29.26-8.4c-12.422-5.1-16.323-10.241-16.323-20.579 0-3.364.994-4.82 2.049-6.361 1.087-1.588 2.439-3.561 3.472-9.14.497-2.696 2.06-3.447 3.093-3.944 1.112-.532 2.256-1.083 2.66-6.447-.003-2.732-1.23-3.475-1.28-3.504-.658-.379-1.083-1.176-.944-1.92.887-4.752 2.346-19.574-2.435-25.141-3.264-3.798-8.41-3.901-9.39-3.862-.164-.014-.325-.018-.479-.057-.465-.118-1.251-.522-1.49-.937-.974-1.667-9.445-5.017-21.134-.286C34.506 28.524 34.481 38.55 35.98 47.74a189.69 189.69 0 0 0 1.037 6.393 1.788 1.788 0 0 1-1.012 1.946c.011 0-1.212.747-1.212 3.604.4 5.224 1.548 5.778 2.657 6.311 1.033.497 2.6 1.248 3.097 3.944 1.03 5.578 2.381 7.552 3.468 9.14 1.058 1.541 2.052 2.996 2.052 6.361 0 10.348-3.9 15.49-16.326 20.586z"/></g></svg>